HIERARCHY
ROOT Hips
{
    OFFSET   0.000000   0.000000   0.000000
    CHANNELS 6 Xposition Yposition Zposition Zrotation Xrotation Yrotation
    JOINT Chest
    {
        OFFSET   0.000000   8.007230   0.000000
        CHANNELS 3 Zrotation Xrotation Yrotation
        JOINT Chest2
        {
            OFFSET   0.000000  22.077100   0.000000
            CHANNELS 3 Zrotation Xrotation Yrotation
            JOINT Neck
            {
                OFFSET   0.000000  23.254800  -0.000021
                CHANNELS 3 Zrotation Xrotation Yrotation
                JOINT Head
                {
                    OFFSET   0.000000  14.370000   1.956610
                    CHANNELS 3 Zrotation Xrotation Yrotation
                    End Site
                    {
                        OFFSET   0.000000  19.566000   0.000000
                    }
                }
            }
            JOINT LeftCollar
            {
                OFFSET   3.911900  19.017000  -0.467063
                CHANNELS 3 Zrotation Xrotation Yrotation
                JOINT LeftShoulder
                {
                    OFFSET  10.383700   0.000000   0.000000
                    CHANNELS 3 Zrotation Xrotation Yrotation
                    JOINT LeftElbow
                    {
                        OFFSET  26.662100   0.001529   0.000325
                        CHANNELS 3 Zrotation Xrotation Yrotation
                        JOINT LeftWrist
                        {
                            OFFSET  28.869000  -0.000011  -0.000096
                            CHANNELS 3 Zrotation Xrotation Yrotation
                            JOINT LeftFinger0
                            {
                                OFFSET   2.044650  -2.323460   3.252850
                                CHANNELS 3 Zrotation Xrotation Yrotation
                                JOINT LeftFinger01
                                {
                                    OFFSET   3.088130   0.000000   0.000000
                                    CHANNELS 3 Zrotation Xrotation Yrotation
                                    JOINT LeftFinger02
                                    {
                                        OFFSET   2.639460   0.000000   0.000000
                                        CHANNELS 3 Zrotation Xrotation Yrotation
                                        End Site
                                        {
                                            OFFSET   2.582190   0.000000   0.000000
                                        }
                                    }
                                }
                            }
                            JOINT LeftFinger1
                            {
                                OFFSET   8.364480   0.000000   3.252850
                                CHANNELS 3 Zrotation Xrotation Yrotation
                                JOINT LeftFinger11
                                {
                                    OFFSET   4.646930   0.000000   0.000000
                                    CHANNELS 3 Zrotation Xrotation Yrotation
                                    JOINT LeftFinger12
                                    {
                                        OFFSET   2.323460   0.000000   0.000000
                                        CHANNELS 3 Zrotation Xrotation Yrotation
                                        End Site
                                        {
                                            OFFSET   2.273050   0.000000   0.000000
                                        }
                                    }
                                }
                            }
                            JOINT LeftFinger2
                            {
                                OFFSET   8.364480   0.000016   1.078090
                                CHANNELS 3 Zrotation Xrotation Yrotation
                                JOINT LeftFinger21
                                {
                                    OFFSET   5.111620   0.000000   0.000000
                                    CHANNELS 3 Zrotation Xrotation Yrotation
                                    JOINT LeftFinger22
                                    {
                                        OFFSET   2.788160   0.000017   0.000000
                                        CHANNELS 3 Zrotation Xrotation Yrotation
                                        End Site
                                        {
                                            OFFSET   2.727660   0.000000   0.000000
                                        }
                                    }
                                }
                            }
                            JOINT LeftFinger3
                            {
                                OFFSET   7.899780   0.000015  -1.078090
                                CHANNELS 3 Zrotation Xrotation Yrotation
                                JOINT LeftFinger31
                                {
                                    OFFSET   4.646920   0.000000   0.000000
                                    CHANNELS 3 Zrotation Xrotation Yrotation
                                    JOINT LeftFinger32
                                    {
                                        OFFSET   2.323470   0.000000   0.000000
                                        CHANNELS 3 Zrotation Xrotation Yrotation
                                        End Site
                                        {
                                            OFFSET   2.273050   0.000000   0.000000
                                        }
                                    }
                                }
                            }
                            JOINT LeftFinger4
                            {
                                OFFSET   7.435090   0.000000  -3.252850
                                CHANNELS 3 Zrotation Xrotation Yrotation
                                JOINT LeftFinger41
                                {
                                    OFFSET   3.717550   0.000000   0.000000
                                    CHANNELS 3 Zrotation Xrotation Yrotation
                                    JOINT LeftFinger42
                                    {
                                        OFFSET   1.858760   0.000000   0.000000
                                        CHANNELS 3 Zrotation Xrotation Yrotation
                                        End Site
                                        {
                                            OFFSET   1.818440   0.000000   0.000000
                                        }
                                    }
                                }
                            }
                        }
                    }
                }
            }
            JOINT RightCollar
            {
                OFFSET  -3.911900  19.017000  -0.467062
                CHANNELS 3 Zrotation Xrotation Yrotation
                JOINT RightShoulder
                {
                    OFFSET -10.383700   0.000015   0.000000
                    CHANNELS 3 Zrotation Xrotation Yrotation
                    JOINT RightElbow
                    {
                        OFFSET -26.662100   0.001341   0.000385
                        CHANNELS 3 Zrotation Xrotation Yrotation
                        JOINT RightWrist
                        {
                            OFFSET -28.869000   0.000025  -0.000080
                            CHANNELS 3 Zrotation Xrotation Yrotation
                            JOINT RightFinger0
                            {
                                OFFSET  -2.044650  -2.323490   3.252850
                                CHANNELS 3 Zrotation Xrotation Yrotation
                                JOINT RightFinger01
                                {
                                    OFFSET  -3.088130   0.000000   0.000000
                                    CHANNELS 3 Zrotation Xrotation Yrotation
                                    JOINT RightFinger02
                                    {
                                        OFFSET  -2.639460   0.000000   0.000000
                                        CHANNELS 3 Zrotation Xrotation Yrotation
                                        End Site
                                        {
                                            OFFSET  -2.582190   0.000000   0.000000
                                        }
                                    }
                                }
                            }
                            JOINT RightFinger1
                            {
                                OFFSET  -8.364480   0.000000   3.252850
                                CHANNELS 3 Zrotation Xrotation Yrotation
                                JOINT RightFinger11
                                {
                                    OFFSET  -4.646930   0.000000   0.000000
                                    CHANNELS 3 Zrotation Xrotation Yrotation
                                    JOINT RightFinger12
                                    {
                                        OFFSET  -2.323470   0.000000   0.000000
                                        CHANNELS 3 Zrotation Xrotation Yrotation
                                        End Site
                                        {
                                            OFFSET  -2.273050   0.000000   0.000000
                                        }
                                    }
                                }
                            }
                            JOINT RightFinger2
                            {
                                OFFSET  -8.364480   0.000000   1.078090
                                CHANNELS 3 Zrotation Xrotation Yrotation
                                JOINT RightFinger21
                                {
                                    OFFSET  -5.111610   0.000000   0.000000
                                    CHANNELS 3 Zrotation Xrotation Yrotation
                                    JOINT RightFinger22
                                    {
                                        OFFSET  -2.788160   0.000000   0.000000
                                        CHANNELS 3 Zrotation Xrotation Yrotation
                                        End Site
                                        {
                                            OFFSET  -2.727660   0.000000   0.000000
                                        }
                                    }
                                }
                            }
                            JOINT RightFinger3
                            {
                                OFFSET  -7.899780   0.000000  -1.078090
                                CHANNELS 3 Zrotation Xrotation Yrotation
                                JOINT RightFinger31
                                {
                                    OFFSET  -4.646920   0.000000   0.000000
                                    CHANNELS 3 Zrotation Xrotation Yrotation
                                    JOINT RightFinger32
                                    {
                                        OFFSET  -2.323470   0.000000   0.000000
                                        CHANNELS 3 Zrotation Xrotation Yrotation
                                        End Site
                                        {
                                            OFFSET  -2.273050   0.000000   0.000000
                                        }
                                    }
                                }
                            }
                            JOINT RightFinger4
                            {
                                OFFSET  -7.435090   0.000000  -3.252850
                                CHANNELS 3 Zrotation Xrotation Yrotation
                                JOINT RightFinger41
                                {
                                    OFFSET  -3.717550   0.000000   0.000000
                                    CHANNELS 3 Zrotation Xrotation Yrotation
                                    JOINT RightFinger42
                                    {
                                        OFFSET  -1.858770   0.000000   0.000000
                                        CHANNELS 3 Zrotation Xrotation Yrotation
                                        End Site
                                        {
                                            OFFSET  -1.818440   0.000000   0.000000
                                        }
                                    }
                                }
                            }
                        }
                    }
                }
            }
        }
    }
    JOINT LeftHip
    {
        OFFSET   9.783010   0.000000   0.000000
        CHANNELS 3 Zrotation Xrotation Yrotation
        JOINT LeftKnee
        {
            OFFSET   0.000070 -41.789100   0.000028
            CHANNELS 3 Zrotation Xrotation Yrotation
            JOINT LeftAnkle
            {
                OFFSET   0.000087 -41.133200  -0.000100
                CHANNELS 3 Zrotation Xrotation Yrotation
                JOINT LeftToe
                {
                    OFFSET   0.000000  -6.358960  14.674500
                    CHANNELS 3 Zrotation Xrotation Yrotation
                    End Site
                    {
                        OFFSET   0.000000   0.000000   3.913200
                    }
                }
            }
        }
    }
    JOINT RightHip
    {
        OFFSET  -9.783020   0.000000   0.000000
        CHANNELS 3 Zrotation Xrotation Yrotation
        JOINT RightKnee
        {
            OFFSET   0.000044 -41.789100  -0.000870
            CHANNELS 3 Zrotation Xrotation Yrotation
            JOINT RightAnkle
            {
                OFFSET  -0.000090 -41.133200  -0.000245
                CHANNELS 3 Zrotation Xrotation Yrotation
                JOINT RightToe
                {
                    OFFSET   0.000000  -6.358960  14.674500
                    CHANNELS 3 Zrotation Xrotation Yrotation
                    End Site
                    {
                        OFFSET   0.000000   0.000000   3.913200
                    }
                }
            }
        }
    }
}
MOTION
Frames: 4
Frame Time:   0.016667
  1.927240  89.477100   0.861702  -2.443250 -15.297200   6.864180  -1.090790  11.786700   2.728830  -2.861780  23.502900   5.884950   3.048490  -3.424610   0.173780   5.058120  -6.897190   5.545870   0.013084  -3.365330  -0.782231 -46.294000  20.960500 -62.180200  19.248800 -20.037800 -106.589000  33.297100  13.826300 -13.448000  42.309300  14.535000 -43.663700  -2.302090  -0.000767   0.000000   3.848930  -0.000433  -0.000581 -11.464100   0.060413  -0.297754  -9.379790  -0.003135  -0.003964  -6.565840   0.000976   0.000795 -15.480800  -0.657006   2.370130 -15.494400  -0.000186  -0.004093 -10.319200   0.000444   0.009415 -12.602900  -0.536683   2.400190 -12.613900  -0.000739   0.000828  -8.400870   0.000232   0.007240 -12.696800  -0.543273   2.398580 -19.062700  -0.000755   0.005771 -12.695800   0.000284  -0.000320   8.591770  -0.634397   5.861410  71.526000  25.261400   0.717894   4.108880 -11.721600  20.517600 -18.639900  -6.737470   0.812229 -38.889900  31.911600  63.513200  30.755000   0.001927  -0.001091  10.377500  -0.002306   0.003456  27.498600   4.051740   7.735550  22.722700   0.001313   0.000593  15.905800   0.007320   0.002982  28.141700   2.973950   5.540690  34.072500   0.001685   0.006924  22.692300   0.006399   0.001355  27.159700   0.801487   1.560190  27.708400   0.000860   0.004663  18.453800   0.001909   0.000561  35.347400   0.160284   0.229158  53.021700   0.002238   0.004846  35.312500   0.003939  -0.005198   4.093480  17.466300   2.497100   1.398550   0.104348   1.806880  -1.833720  -3.697720   0.892464  -0.000000   0.000000   0.000000   4.839540  17.357400  -9.331830   0.503004   2.904380 -12.453600  -0.915716  -5.907530  -2.584930   0.000000   0.000000   0.000000
  1.929260  89.476900   0.861497  -2.451090 -15.284700   6.850880  -1.099260  11.787100   2.728580  -2.879150  23.503200   5.886120   3.051940  -3.423960   0.174173   5.064300  -6.897880   5.509220   0.020711  -3.363840  -0.775486 -46.246000  21.001900 -62.248300  19.311100 -20.108400 -106.502000  33.086500  13.807900 -13.506000  42.269400  14.428000 -43.606600  -2.326230  -0.000828  -0.000000   3.836880  -0.000461  -0.000640 -11.483200   0.055057  -0.270132  -9.395390  -0.003176  -0.003994  -6.576750   0.000991   0.000833 -15.491100  -0.682844   2.461780 -15.505700  -0.000233  -0.004100 -10.326800   0.000435   0.009487 -12.630700  -0.559029   2.492780 -12.642800  -0.000790   0.000867  -8.420130   0.000230   0.007292 -12.382900  -0.548440   2.495110 -18.592300  -0.000805   0.005859 -12.382500   0.000249  -0.000349   8.598240  -0.625685   5.862220  71.539000  25.250400   0.703908   4.122500 -11.709300  20.521800 -18.615200  -6.786310   0.811725 -38.854400  31.861200  63.413100  30.788700   0.001957  -0.001101  10.394300  -0.002306   0.003459  27.498900   4.053490   7.738720  22.723300   0.001281   0.000569  15.906200   0.007300   0.002912  28.141800   2.980920   5.554090  34.060100   0.001669   0.006937  22.684000   0.006416   0.001421  27.160600   0.805374   1.569460  27.697900   0.000839   0.004684  18.446800   0.001886   0.000613  35.338000   0.160281   0.230867  53.007600   0.002212   0.004846  35.303100   0.003943  -0.005182   4.094990  17.443600   2.496470   1.396910   0.128595   1.799510  -1.833730  -3.709530   0.911819   0.000000   0.000000  -0.000000   4.839780  17.337500  -9.336860   0.501085   2.916630 -12.441600  -0.913901  -5.908490  -2.579350   0.000000   0.000000   0.000000
  1.931380  89.476700   0.861302  -2.458510 -15.279000   6.837600  -1.106130  11.787300   2.728030  -2.893130  23.503500   5.886130   3.051540  -3.423440   0.174562   5.062050  -6.894310   5.466720   0.023632  -3.359110  -0.771736 -46.241600  21.030600 -62.299000  19.356700 -20.155800 -106.423000  32.822200  13.699100 -13.491100  42.280800  14.476300 -43.650800  -2.103900  -0.000891  -0.000000   3.948040  -0.000485  -0.000628 -11.447000   0.060441  -0.298037  -9.365760  -0.003211  -0.004014  -6.556030   0.001005   0.000857 -15.501000  -0.694322   2.501550 -15.515900  -0.000290  -0.004127 -10.333700   0.000433   0.009575 -12.629500  -0.568081   2.533180 -12.642000  -0.000837   0.000906  -8.419610   0.000225   0.007342 -12.361900  -0.554595   2.536150 -18.560900  -0.000858   0.005937 -12.361500   0.000212  -0.000380   8.604510  -0.620948   5.863060  71.558900  25.233900   0.687952   4.129310 -11.691500  20.527700 -18.603300  -6.822390   0.810670 -38.809600  31.787700  63.281100  30.819300   0.001979  -0.001104  10.409600  -0.002309   0.003447  27.496900   4.054450   7.739720  22.721700   0.001251   0.000545  15.905200   0.007276   0.002848  28.141900   2.987980   5.567580  34.053200   0.001642   0.006948  22.679400   0.006432   0.001486  27.161500   0.807503   1.573890  27.692700   0.000826   0.004702  18.443300   0.001866   0.000666  35.328300   0.160294   0.231962  52.992900   0.002185   0.004848  35.293300   0.003947  -0.005165   4.096490  17.449900   2.496440   1.395540   0.112983   1.798260  -1.832970  -3.701240   0.931623   0.000000   0.000000   0.000000   4.836050  17.323400  -9.325900   0.504401   2.928570 -12.453400  -0.911395  -5.909610  -2.565600  -0.000000   0.000000   0.000000
  1.933550  89.476500   0.860539  -2.467040 -15.277800   6.821250  -1.111130  11.788100   2.727280  -2.903480  23.504600   5.886100   3.048570  -3.422810   0.174961   5.058600  -6.887990   5.439340   0.024204  -3.351800  -0.770082 -46.254300  21.054300 -62.339400  19.399100 -20.204400 -106.343000  32.558300  13.556500 -13.474400  42.298500  14.562800 -43.738800  -1.750120  -0.000957   0.000000   4.124930  -0.000512  -0.000616 -11.392100   0.073689  -0.365697  -9.320890  -0.003245  -0.004032  -6.524630   0.001020   0.000882 -15.510500  -0.698337   2.515030 -15.525700  -0.000348  -0.004159 -10.340200   0.000433   0.009666 -12.627100  -0.570854   2.546980 -12.639700  -0.000884   0.000945  -8.418020   0.000223   0.007389 -12.346000  -0.558486   2.549690 -18.537500  -0.000911   0.006014 -12.345900   0.000176  -0.000409   8.609820  -0.618146   5.863870  71.579500  25.222800   0.672871   4.132030 -11.679300  20.535200 -18.596800  -6.860710   0.810152 -38.783000  31.742800  63.199800  30.846600   0.002002  -0.001109  10.423300  -0.002312   0.003431  27.494500   4.057520   7.742300  22.720200   0.001223   0.000522  15.904100   0.007254   0.002786  28.141500   2.996920   5.584320  34.050100   0.001614   0.006962  22.677300   0.006450   0.001548  27.161800   0.810328   1.579230  27.690600   0.000814   0.004720  18.441900   0.001848   0.000720  35.322400   0.160330   0.232663  52.984000   0.002158   0.004850  35.287400   0.003951  -0.005148   4.099820  17.464900   2.496630   1.393560   0.081450   1.798080  -1.832570  -3.684770   0.942927   0.000000   0.000000  -0.000000   4.831640  17.313300  -9.310530   0.507431   2.939190 -12.465100  -0.908918  -5.910300  -2.549600   0.000000   0.000000   0.000000
